<?xml version="1.0" encoding="UTF-8" standalone="no"?>
<!-- Created with Inkscape (http://www.inkscape.org/) -->

<svg
   version="1.1"
   id="svg1"
   width="964"
   height="964"
   viewBox="0 0 964 964"
   sodipodi:docname="shuflduf_favicon.svg"
   inkscape:version="1.4 (86a8ad7, 2024-10-11)"
   inkscape:export-filename="shuflduf_favicon.png"
   inkscape:export-xdpi="96"
   inkscape:export-ydpi="96"
   xmlns:inkscape="http://www.inkscape.org/namespaces/inkscape"
   xmlns:sodipodi="http://sodipodi.sourceforge.net/DTD/sodipodi-0.dtd"
   xmlns="http://www.w3.org/2000/svg"
   xmlns:svg="http://www.w3.org/2000/svg">
  <defs
     id="defs1">
    <inkscape:path-effect
       effect="mirror_symmetry"
       start_point="0,482"
       end_point="964,482"
       center_point="482,482"
       id="path-effect1"
       is_visible="true"
       lpeversion="1.2"
       lpesatellites=""
       mode="horizontal"
       discard_orig_path="false"
       fuse_paths="true"
       oposite_fuse="false"
       split_items="false"
       split_open="false"
       link_styles="false" />
  </defs>
  <sodipodi:namedview
     id="namedview1"
     pagecolor="#ffffff"
     bordercolor="#000000"
     borderopacity="0.25"
     inkscape:showpageshadow="2"
     inkscape:pageopacity="0.0"
     inkscape:pagecheckerboard="0"
     inkscape:deskcolor="#d1d1d1"
     inkscape:zoom="0.25"
     inkscape:cx="1218"
     inkscape:cy="198"
     inkscape:window-width="1920"
     inkscape:window-height="974"
     inkscape:window-x="-11"
     inkscape:window-y="-11"
     inkscape:window-maximized="1"
     inkscape:current-layer="g1" />
  <g
     inkscape:groupmode="layer"
     inkscape:label="Image"
     id="g1">
    <g
       id="g2" />
    <path
       d="M 970.20609,36.269428 H 1168.4587 V 419.47723 h 3.6266 c 11.2827,-11.28267 24.1771,-21.75944 38.6834,-31.43029 14.9093,-10.07381 30.4229,-18.73729 46.541,-25.99044 16.1181,-7.25315 32.8407,-12.89448 50.1676,-16.924 17.3269,-4.02953 35.4598,-6.04429 54.3986,-6.04429 33.4451,0 63.6665,4.63395 90.6643,13.90186 26.9978,9.26791 49.9661,23.37124 68.9049,42.31001 18.9387,18.93877 33.445,43.31739 43.5188,73.13587 10.4768,29.41553 15.7152,64.27092 15.7152,104.56617 V 872.79876 H 1674.97 V 976.7605 H 1377.591 V 872.79876 h 85.8289 V 586.90398 c 0,-47.95135 -12.29,-84.21707 -36.8701,-108.79717 -24.1772,-24.98305 -59.0326,-37.47458 -104.5662,-37.47458 -25.7889,0 -51.9808,6.24576 -78.5757,18.73729 -26.5949,12.08857 -51.5779,27.40077 -74.9492,45.93659 v 367.49265 h 90.6643 V 976.7605 H 961.74409 V 872.79876 H 1056.035 V 140.23117 H 970.20609 Z M 2148.2377,918.73534 c -23.7742,22.16239 -50.1676,40.29525 -79.1801,54.39859 -28.6097,14.10333 -61.2488,21.155 -97.9175,21.155 -30.6244,0 -58.8311,-4.83543 -84.62,-14.50629 -25.386,-9.67086 -47.3469,-22.76681 -65.8827,-39.28786 -18.5359,-16.92401 -33.0422,-36.4672 -43.5189,-58.62959 -10.0738,-22.16239 -15.1107,-45.73511 -15.1107,-70.71816 0,-26.59486 3.828,-50.16758 11.4841,-70.71816 8.0591,-20.55057 18.5358,-38.28048 31.4303,-53.18972 13.2975,-15.31219 28.6097,-28.0052 45.9366,-38.07901 17.7299,-10.47677 36.0643,-18.73729 55.003,-24.78158 19.3417,-6.44724 38.8849,-10.87972 58.6296,-13.29743 20.1476,-2.82067 39.2878,-4.231 57.4207,-4.231 29.0126,0 53.3912,1.00738 73.1359,3.02214 19.7447,1.61181 37.676,4.02953 53.7941,7.25315 l 0.6045,-51.37644 c 0,-22.16239 -3.2236,-41.30263 -9.6709,-57.42073 -6.4472,-16.52105 -15.5136,-30.01996 -27.1993,-40.49672 -11.6856,-10.87972 -25.7889,-18.93877 -42.31,-24.17715 -16.1181,-5.23839 -34.2509,-7.85758 -54.3986,-7.85758 -18.9387,0 -37.0716,1.41033 -54.3986,4.231 -17.3269,2.41772 -33.6465,5.84282 -48.9587,10.27529 -14.9092,4.02953 -28.8111,8.86496 -41.7056,14.50629 -12.4915,5.23839 -23.1697,10.87972 -32.0347,16.92401 l -36.8701,-77.97131 c 14.9092,-9.67086 31.2288,-18.53581 48.9587,-26.59486 17.7299,-8.462 36.2657,-15.51367 55.6074,-21.15501 19.7447,-6.04429 39.6908,-10.67824 59.8385,-13.90186 20.5505,-3.62657 40.6981,-5.43985 60.4428,-5.43985 36.2657,0 68.9049,4.43248 97.9175,13.29743 29.0126,8.462 53.5927,21.75943 73.7403,39.89229 20.1476,18.13286 35.6613,41.30263 46.541,69.5093 10.8797,27.80372 16.3196,61.24878 16.3196,100.33517 l -0.6044,313.09407 h 69.5093 V 976.7605 h -181.9331 z m -152.316,-18.73729 c 14.9092,0 29.8184,-1.81329 44.7277,-5.43986 14.9093,-3.62657 29.0126,-8.462 42.31,-14.50629 13.2975,-6.44723 25.5875,-13.70038 36.8702,-21.75943 11.2827,-8.462 20.752,-17.12548 28.4081,-25.99043 l 0.6044,-141.43632 h -130.5566 c -21.7594,0 -41.7055,2.41771 -59.8384,7.25314 -17.7299,4.83543 -33.2436,11.8871 -46.541,21.15501 -12.8945,9.26791 -22.9683,20.75205 -30.2214,34.45243 -7.2532,13.70039 -10.8798,29.41553 -10.8798,47.14544 0,16.52105 3.0222,31.02734 9.0665,43.51887 6.0443,12.08857 14.5063,22.36386 25.386,30.82587 11.2827,8.05905 24.5801,14.30481 39.8923,18.73728 15.3122,4.02953 32.2362,6.04429 50.772,6.04429 z m 642.5075,-549.42569 h 146.8762 v 91.26873 h -148.085 l -1.8133,361.44837 c 0,24.5801 2.8207,44.52625 8.462,59.83844 5.6413,15.31219 14.7078,25.99043 27.1993,32.03472 12.4915,5.64133 26.5948,8.462 42.31,8.462 16.924,0 31.8332,-1.41033 44.7277,-4.231 12.8945,-3.22362 26.9978,-8.462 42.31,-15.71514 l 25.9904,75.55359 c -19.3417,10.07381 -39.6908,17.93138 -61.0473,23.57272 -21.3565,6.04429 -46.541,9.06643 -75.5536,9.06643 -27.4007,0 -51.3764,-3.4251 -71.927,-10.27529 -20.1476,-6.44724 -37.2731,-17.52843 -51.3764,-33.24358 -13.7004,-15.71515 -23.9757,-36.66868 -30.8259,-62.86059 -6.8502,-26.59486 -10.2753,-59.63696 -10.2753,-99.12631 l 1.8133,-344.52436 h -99.7307 v -91.26873 h 100.9396 V 200.67404 l 110.006,-51.98087 z"
       id="text8"
       style="font-size:1237.87px;font-family:Arvo;-inkscape-font-specification:Arvo;fill:#41ad7b;stroke-width:6.44726"
       transform="scale(1.0759349,0.92942427)"
       aria-label="Chat"
       sodipodi:nodetypes="cccccssssscsccccccscscccccccccccccscccscccccsccccccsccccccccscscccccccssccccsccsscccscccccscsccccsccccccccccc" />
    <path
       id="rect1"
       style="display:inline;fill:#41ad7b;fill-opacity:1;stroke:none;stroke-width:3.25747"
       d="m 505.37695,36.039062 c -67.53441,10e-7 -130.30608,11.69769 -188.3164,35.089844 -11.34583,4.535159 -22.30035,9.505771 -33.04102,14.714844 l 102.86524,75.51563 c 36.3892,-13.32137 75.86413,-20.05469 118.49218,-20.05469 58.87616,0 112.12569,12.26112 159.7461,36.78515 48.05333,24.52404 86.58077,58.29331 115.58593,101.30469 H 920.32422 V 178.65625 H 851.49023 C 829.41167,154.50951 803.00439,132.24881 772.26758,111.875 741.96368,91.123894 704.95076,73.392154 661.22656,58.677734 617.50236,43.586022 565.55184,36.039062 505.37695,36.039062 Z M 386.88477,161.35938 c -6.47903,2.37184 -12.89258,4.88163 -19.17383,7.67578 -41.55964,18.48735 -77.2755,43.38977 -107.14649,74.70507 -16.83746,17.69538 -31.47569,37.11466 -44.06445,58.14258 l 0.0703,59.04883 218.57031,121.46094 -218.28124,121.29687 0.0762,62.9668 c 13.93243,22.61153 29.98774,42.5593 48.17578,59.83008 29.43808,27.16508 64.28597,49.99116 104.54687,68.47851 6.05727,2.72467 12.26619,5.1755 18.54883,7.49024 l 435.98242,-320.0625 z m 1.32226,641.0957 -103.71484,76.13867 c 12.07764,5.9617 24.4189,11.51992 37.11328,16.54102 56.27868,21.88298 117.96882,32.82617 185.07031,32.82617 70.13189,0 133.98704,-11.50858 191.56445,-34.52344 58.01033,-23.39215 106.71236,-53.95236 146.10743,-91.68164 39.39507,-38.10658 67.31884,-77.53363 83.76953,-118.28125 L 813.82812,636.50195 c -35.93176,66.02624 -79.22419,113.56369 -129.875,142.61524 -50.65081,28.67425 -110.17593,43.01172 -178.57617,43.01172 -42.6626,0 -81.69363,-6.60318 -117.16992,-19.67383 z M 284.49219,878.59375 C 260.85392,866.92556 238.41646,853.42558 217.14062,838.1543 l 0.10743,89.80468 z M 217.14062,838.1543 216.93555,666.65625 C 208.6494,653.20831 201.11096,638.82141 194.33008,623.48438 188.50361,610.18514 183.7133,596.1972 179.75391,581.6582 L 139.8125,603.85352 V 360.93359 l 40.89648,22.72657 c 3.13853,-10.75637 6.80127,-21.36805 11.02344,-31.82618 7.04152,-17.60301 15.34656,-34.21456 24.76758,-49.95117 l -0.21289,-175.98047 c -17.19845,12.31615 -33.41633,25.7229 -48.58203,40.30274 -41.55964,39.99303 -74.027003,87.15616 -97.404299,141.48633 -22.944383,54.33016 -34.417969,112.05434 -34.417969,173.17578 0,60.74413 11.473586,119.03761 34.417969,174.87695 23.377296,55.83934 56.926189,104.13128 100.650389,144.87891 14.70289,13.56764 30.14268,26.01325 46.18945,37.53125 z m -0.85351,-712.25196 c 21.03871,-15.06623 43.65182,-28.379838 67.73242,-40.05859 L 216.17969,36.041016 Z m -35.57813,257.75782 c -9.08999,31.15327 -13.65234,63.55203 -13.65234,97.20703 0,36.40748 4.30078,69.95893 12.69727,100.79101 l 178.63086,-99.26562 z" />
  </g>
</svg>
